inDegrees=yes
name=ik_MT_012005D6_009-001_orientations
DataType=double
version=3
OpenSimVersion=4.2-2021-02-10-d1304141c
endheader
time	pelvis_tilt	pelvis_list	pelvis_rotation	pelvis_tx	pelvis_ty	pelvis_tz	hip_flexion_r	hip_adduction_r	hip_rotation_r	knee_angle_r	knee_angle_r_beta	ankle_angle_r	subtalar_angle_r	mtp_angle_r	hip_flexion_l	hip_adduction_l	hip_rotation_l	knee_angle_l	knee_angle_l_beta	ankle_angle_l	subtalar_angle_l	mtp_angle_l	lumbar_extension	lumbar_bending	lumbar_rotation	arm_flex_r	arm_add_r	arm_rot_r	elbow_flex_r	pro_sup_r	wrist_flex_r	wrist_dev_r	arm_flex_l	arm_add_l	arm_rot_l	elbow_flex_l	pro_sup_l	wrist_flex_l	wrist_dev_l	pelvis_tilt	pelvis_list	pelvis_rotation	pelvis_tx	pelvis_ty	pelvis_tz	hip_flexion_r	hip_adduction_r	hip_rotation_r	knee_angle_r	knee_angle_r_beta	ankle_angle_r	subtalar_angle_r	mtp_angle_r	hip_flexion_l	hip_adduction_l	hip_rotation_l	knee_angle_l	knee_angle_l_beta	ankle_angle_l	subtalar_angle_l	mtp_angle_l	lumbar_extension	lumbar_bending	lumbar_rotation	arm_flex_r	arm_add_r	arm_rot_r	elbow_flex_r	pro_sup_r	wrist_flex_r	wrist_dev_r	arm_flex_l	arm_add_l	arm_rot_l	elbow_flex_l	pro_sup_l	wrist_flex_l	wrist_dev_l
1.500000000000001	-51.8628130709775	90.12174883373059	-61.19945173902066	0	0.9399999999999999	0	0.6647211380068583	-0.1962253794685508	-0.3105180269547309	0.6461921910883038	0.01127818133516726	0.1830696658042729	0	0	0.8427270159828174	0.2193661428569682	-0.07744089538258149	0.8791793690515862	0.01534457470555652	0.1949455839118537	0	0	-0.202923509278686	0.214954827259038	-0.01874915839892924	0	-14.80120653287419	0	74.98506702683149	45.0000002129154	0	0	0	-14.80120653287419	0	74.98506702683149	45.0000002129154	0	0	-51.8628130709775	90.12174883373059	-61.19945173902066	0	0.9399999999999999	0	0.6647211380068583	-0.1962253794685508	-0.3105180269547309	0.6461921910883038	0.01127818133516726	0.1830696658042729	0	0	0.8427270159828174	0.2193661428569682	-0.07744089538258149	0.8791793690515862	0.01534457470555652	0.1949455839118537	0	0	-0.202923509278686	0.214954827259038	-0.01874915839892924	0	-14.80120653287419	0	74.98506702683149	45.0000002129154	0	0	0	-14.80120653287419	0	74.98506702683149	45.0000002129154	0	0
1.510000000000001	-51.85451600953563	90.11953054109381	-61.21684576238821	0	0.9399999999999999	0	0.6631999926193816	-0.1996037569266585	-0.3041921524382903	0.6432978388390564	0.01122766535870539	0.1744939202265984	0	0	0.8477408763532899	0.2238891468993298	-0.07764362350395346	0.8858659116254884	0.01546127688904589	0.2071204246420121	0	0	-0.2109548636327795	0.2139326218907001	-0.01982147976805142	0	-14.80673137956097	0	74.98586112641296	45.00000021841951	0	0	0	-14.80673137956097	0	74.98586112641296	45.00000021841951	0	0	-51.85451600953563	90.11953054109381	-61.21684576238821	0	0.9399999999999999	0	0.6631999926193816	-0.1996037569266585	-0.3041921524382903	0.6432978388390564	0.01122766535870539	0.1744939202265984	0	0	0.8477408763532899	0.2238891468993298	-0.07764362350395346	0.8858659116254884	0.01546127688904589	0.2071204246420121	0	0	-0.2109548636327795	0.2139326218907001	-0.01982147976805142	0	-14.80673137956097	0	74.98586112641296	45.00000021841951	0	0	0	-14.80673137956097	0	74.98586112641296	45.00000021841951	0	0
1.520000000000001	-51.84829061861297	90.0951990749716	-61.23079253886583	0	0.9399999999999999	0	0.6439204192756302	-0.1848975452692285	-0.2984363923596927	0.6521980668522335	0.01138300364171356	0.19247648439596	0	0	0.822207054274791	0.2091922309552491	-0.07536898046661725	0.8955978382328597	0.01563113105090696	0.2402724778290566	0	0	-0.2457429035774071	0.2305598387230706	-0.03549808139036743	0	-14.81210103089604	0	74.986613067192	45.00000022320262	0	0	0	-14.81210103089604	0	74.986613067192	45.00000022320262	0	0	-51.84829061861297	90.0951990749716	-61.23079253886583	0	0.9399999999999999	0	0.6439204192756302	-0.1848975452692285	-0.2984363923596927	0.6521980668522335	0.01138300364171356	0.19247648439596	0	0	0.822207054274791	0.2091922309552491	-0.07536898046661725	0.8955978382328597	0.01563113105090696	0.2402724778290566	0	0	-0.2457429035774071	0.2305598387230706	-0.03549808139036743	0	-14.81210103089604	0	74.986613067192	45.00000022320262	0	0	0	-14.81210103089604	0	74.986613067192	45.00000022320262	0	0
1.530000000000001	-51.84256160306031	90.12063017994436	-61.2393756429306	0	0.9399999999999999	0	0.6658467773168434	-0.2017285559729868	-0.2971157780712595	0.6409110940953057	0.01118600880452227	0.1743353512198807	0	0	0.8431007468121032	0.2244549090313653	-0.07055113201019098	0.878960790399347	0.01534075978840037	0.1980484174782708	0	0	-0.222333899408162	0.2147644110440718	-0.03493586892927536	0	-14.81736667479335	0	74.9873312643429	45.00000022739263	0	0	0	-14.81736667479335	0	74.9873312643429	45.00000022739263	0	0	-51.84256160306031	90.12063017994436	-61.2393756429306	0	0.9399999999999999	0	0.6658467773168434	-0.2017285559729868	-0.2971157780712595	0.6409110940953057	0.01118600880452227	0.1743353512198807	0	0	0.8431007468121032	0.2244549090313653	-0.07055113201019098	0.878960790399347	0.01534075978840037	0.1980484174782708	0	0	-0.222333899408162	0.2147644110440718	-0.03493586892927536	0	-14.81736667479335	0	74.9873312643429	45.00000022739263	0	0	0	-14.81736667479335	0	74.9873312643429	45.00000022739263	0	0
1.540000000000001	-51.83699614212931	90.09324654847747	-61.25674525075215	0	0.9399999999999999	0	0.6516435583047155	-0.1865338528419224	-0.2898337259092488	0.6575543005970864	0.01147648755606767	0.1854746382904031	0	0	0.818438063814924	0.2074796540844166	-0.07444336856749798	0.8930939963773691	0.0155874307665794	0.2369102553314358	0	0	-0.260407216527586	0.2381416882723588	-0.04111779113961795	0	-14.82243932616951	0	74.98800592139696	45.00000023101546	0	0	0	-14.82243932616951	0	74.98800592139696	45.00000023101546	0	0	-51.83699614212931	90.09324654847747	-61.25674525075215	0	0.9399999999999999	0	0.6516435583047155	-0.1865338528419224	-0.2898337259092488	0.6575543005970864	0.01147648755606767	0.1854746382904031	0	0	0.818438063814924	0.2074796540844166	-0.07444336856749798	0.8930939963773691	0.0155874307665794	0.2369102553314358	0	0	-0.260407216527586	0.2381416882723588	-0.04111779113961795	0	-14.82243932616951	0	74.98800592139696	45.00000023101546	0	0	0	-14.82243932616951	0	74.98800592139696	45.00000023101546	0	0
1.550000000000001	-51.83301945345295	90.09914034616801	-61.26850994862109	0	0.9399999999999999	0	0.6665340658582578	-0.1827834020839566	-0.2920079759483565	0.6599828155476763	0.01151887313788937	0.1901341354882816	0	0	0.8227898088587455	0.2022863659996176	-0.07689668629921524	0.8873410699923674	0.01548702325953626	0.2266859100270189	0	0	-0.2460192864785191	0.2345054802585696	-0.04656670606547868	0	-14.82742082133293	0	74.98865091226919	45.00000023418686	0	0	0	-14.82742082133293	0	74.98865091226919	45.00000023418686	0	0	-51.83301945345295	90.09914034616801	-61.26850994862109	0	0.9399999999999999	0	0.6665340658582578	-0.1827834020839566	-0.2920079759483565	0.6599828155476763	0.01151887313788937	0.1901341354882816	0	0	0.8227898088587455	0.2022863659996176	-0.07689668629921524	0.8873410699923674	0.01548702325953626	0.2266859100270189	0	0	-0.2460192864785191	0.2345054802585696	-0.04656670606547868	0	-14.82742082133293	0	74.98865091226919	45.00000023418686	0	0	0	-14.82742082133293	0	74.98865091226919	45.00000023418686	0	0
1.560000000000001	-51.83033166009782	90.11180269280766	-61.2707845772613	0	0.9399999999999999	0	0.6657635437761923	-0.1963201017597064	-0.2894412791183086	0.6351228102430775	0.01108498419326087	0.1643559182685428	0	0	0.8169808004460943	0.2154215016277118	-0.06762629305669618	0.8542219424648508	0.01490898543879321	0.1838421026897553	0	0	-0.2532737939711902	0.2404063626720601	-0.04986516005093053	0	-14.83225586341729	0	74.98925634037025	45.00000023686189	0	0	0	-14.83225586341729	0	74.98925634037025	45.00000023686189	0	0	-51.83033166009782	90.11180269280766	-61.2707845772613	0	0.9399999999999999	0	0.6657635437761923	-0.1963201017597064	-0.2894412791183086	0.6351228102430775	0.01108498419326087	0.1643559182685428	0	0	0.8169808004460943	0.2154215016277118	-0.06762629305669618	0.8542219424648508	0.01490898543879321	0.1838421026897553	0	0	-0.2532737939711902	0.2404063626720601	-0.04986516005093053	0	-14.83225586341729	0	74.98925634037025	45.00000023686189	0	0	0	-14.83225586341729	0	74.98925634037025	45.00000023686189	0	0
1.570000000000001	-51.82186913127875	90.15068187177908	-61.28052618624849	0	0.9399999999999999	0	1.006513435521157	-0.2122051849626772	-0.3789567764539339	1.188272546264585	0.02073926834337365	0.4188087837133058	0	0	1.146323790511046	0.2350198487946494	-0.1555885963415918	1.402824124748919	0.02448389980327631	0.4476808295434016	0	0	-0.2109824864270053	0.2183041022113081	-0.05703267991690694	0	-14.83689643672936	0	74.98982766140701	45.00000023924892	0	0	0	-14.83689643672936	0	74.98982766140701	45.00000023924892	0	0	-51.82186913127875	90.15068187177908	-61.28052618624849	0	0.9399999999999999	0	1.006513435521157	-0.2122051849626772	-0.3789567764539339	1.188272546264585	0.02073926834337365	0.4188087837133058	0	0	1.146323790511046	0.2350198487946494	-0.1555885963415918	1.402824124748919	0.02448389980327631	0.4476808295434016	0	0	-0.2109824864270053	0.2183041022113081	-0.05703267991690694	0	-14.83689643672936	0	74.98982766140701	45.00000023924892	0	0	0	-14.83689643672936	0	74.98982766140701	45.00000023924892	0	0
